Coordinates
version=1
nRows=14
nColumns=24
inDegrees=yes

Units are S.I. units (second, meters, Newtons, ...)
Angles are in degrees.

endheader
time	pelvis_tilt	pelvis_list	pelvis_rotation	pelvis_tx	pelvis_ty	pelvis_tz	hip_flexion_r	hip_adduction_r	hip_rotation_r	knee_angle_r	ankle_angle_r	subtalar_angle_r	mtp_angle_r	hip_flexion_l	hip_adduction_l	hip_rotation_l	knee_angle_l	ankle_angle_l	subtalar_angle_l	mtp_angle_l	lumbar_extension	lumbar_bending	lumbar_rotation
      5.87000000	      2.26820909	      4.97251932	     -7.53257245	     -0.35777552	      0.74036887	      0.26801913	     10.95793438	     -3.09374383	      8.70108561	    -42.77813360	     22.60186218	     -2.49966684	      0.00000000	      5.33225901	     11.10450351	     -7.13711533	    -16.95827094	     11.96507620	    -21.60651786	      0.00000000	    -27.49961910	     -8.79589578	     -8.87880698
      5.88000000	      2.01267051	      4.50701536	     -6.98582017	     -0.34574859	      0.74311959	      0.26685119	     11.84509039	     -2.10068180	      9.34592409	    -39.78207921	     22.66777218	     -4.45177257	      0.00000000	      3.61651679	     10.81078895	     -6.59937047	    -15.37569970	     11.45954538	    -21.19531141	      0.00000000	    -27.29611276	     -7.94653206	     -9.37784426
      5.89000000	      1.74875443	      4.14682013	     -6.35393555	     -0.33386405	      0.74546123	      0.26565617	     12.69794484	     -1.30900069	      9.99417272	    -36.67275725	     22.51642076	     -6.21801072	      0.00000000	      2.01960478	     10.56566378	     -6.12606242	    -13.93056182	     11.01865124	    -20.58914332	      0.00000000	    -27.09861847	     -7.19014322	     -9.95146756
      5.90000000	      1.46442745	      3.92026680	     -5.62405082	     -0.32210549	      0.74733083	      0.26442933	     13.54070830	     -0.75326354	     10.65686545	    -33.48241655	     22.17686427	     -7.77279440	      0.00000000	      0.58012365	     10.40453215	     -5.67791762	    -12.67537976	     10.64138668	    -19.86232177	      0.00000000	    -26.88691821	     -6.55840797	    -10.64163911
      5.91000000	      1.16570001	      3.83361523	     -4.77452745	     -0.31043026	      0.74871921	      0.26313233	     14.36639861	     -0.45992462	     11.30997182	    -30.23107657	     21.63991528	     -9.05849905	      0.00000000	     -0.71227114	     10.34221845	     -5.20874361	    -11.62354945	     10.34256116	    -19.06113232	      0.00000000	    -26.66860220	     -6.04551739	    -11.46208433
      5.92000000	      0.86799436	      3.87278583	     -3.81146092	     -0.29880397	      0.74963681	      0.26175758	     15.15941237	     -0.42627740	     11.93496002	    -26.94143730	     20.87018419	    -10.04180634	      0.00000000	     -1.89446191	     10.37542430	     -4.67757992	    -10.76018373	     10.14214367	    -18.23341467	      0.00000000	    -26.45781762	     -5.64177875	    -12.38833427
      5.93000000	      0.56711594	      4.03685832	     -2.75232535	     -0.28720709	      0.75008131	      0.26031303	     15.92164044	     -0.64212294	     12.58483975	    -23.63491704	     19.77088762	    -10.84959108	      0.00000000	     -2.97243939	     10.50532594	     -4.11545465	    -10.08197136	     10.00551069	    -17.40760032	      0.00000000	    -26.25124943	     -5.35684800	    -13.40195579
      5.94000000	      0.29283360	      4.24698844	     -1.61468966	     -0.27558374	      0.75009039	      0.25876958	     16.62879201	     -1.04748986	     13.11116523	    -20.34973596	     18.48468401	    -11.24370833	      0.00000000	     -4.03966185	     10.66706834	     -3.40687056	     -9.51587367	     10.04265602	    -16.63427267	      0.00000000	    -26.07871578	     -5.10204449	    -14.40530175
      5.95000000	      0.03171517	      4.57968102	     -0.48042715	     -0.26395244	      0.74964918	      0.25723618	     17.29177758	     -1.65333065	     13.82625362	    -17.10425670	     16.64536371	    -11.88478568	      0.00000000	     -5.08282220	     10.92851151	     -2.84952222	     -9.03227719	     10.04874904	    -15.89402370	      0.00000000	    -25.92661555	     -5.00463291	    -15.44296569
      5.96000000	     -0.19321682	      4.94120002	      0.66207789	     -0.25226335	      0.74878912	      0.25563361	     17.91936763	     -2.39662564	     14.37539600	    -13.97711083	     14.74682853	    -12.15877633	      0.00000000	     -6.16893779	     11.20854165	     -2.22457006	     -8.60045247	     10.20185579	    -15.19520599	      0.00000000	    -25.81708410	     -4.94286443	    -16.39488435
      5.97000000	     -0.37546812	      5.33379740	      1.76856792	     -0.24050288	      0.74752233	      0.25400511	     18.52577357	     -3.23679331	     14.73775084	    -11.03197697	     12.87020879	    -12.14445526	      0.00000000	     -7.32395796	     11.50597663	     -1.62691951	     -8.17967403	     10.42888890	    -14.54860550	      0.00000000	    -25.75248115	     -4.93336303	    -17.27050278
      5.98000000	     -0.53512409	      5.73379702	      2.83392592	     -0.22866705	      0.74584723	      0.25234291	     19.18946879	     -4.12218593	     14.59366074	     -8.38287134	     11.38558318	    -11.44544133	      0.00000000	     -8.53128660	     11.79717634	     -0.98461853	     -7.76784116	     10.74572614	    -13.99318658	      0.00000000	    -25.70506944	     -4.95208170	    -18.03275716
      5.99000000	     -0.59790446	      6.14901086	      3.79031585	     -0.21673185	      0.74387200	      0.25074898	     19.76333569	     -4.98603973	     14.32123044	     -5.95177868	     10.07973959	    -10.75195848	      0.00000000	     -9.88158507	     12.08195115	     -0.42161639	     -7.32859101	     11.09783491	    -13.47593334	      0.00000000	    -25.76210087	     -5.02822458	    -18.65497219
      6.00000000	     -0.55453011	      6.52907960	      4.70050844	     -0.20465015	      0.74165188	      0.24918934	     20.22127578	     -5.76726328	     13.80863506	     -3.77069126	      9.14147458	    -10.04589939	      0.00000000	    -11.37557025	     12.28578530	      0.15836112	     -6.89031315	     11.53716443	    -12.97429711	      0.00000000	    -25.91558205	     -5.09306110	    -19.19297634
